<svg width="207" height="48" viewBox="0 0 207 48" fill="none" xmlns="http://www.w3.org/2000/svg">
<path d="M0.0204102 31.4933H5.26611C10.4048 31.4933 13.9163 34.6405 13.9163 39.736C13.9163 44.8314 10.4262 47.9786 5.26611 47.9786H0.0204102V31.4719V31.4933ZM3.14643 45.0883H4.96639C8.84182 45.0883 10.7474 43.033 10.7474 39.7574C10.7474 36.4817 8.84182 34.4264 4.96639 34.4264H3.14643V45.1097V45.0883Z" fill="#282828"/>
<path d="M34.5351 40.1213V48H31.5375V40.6994C31.5375 39.0937 30.5098 38.1945 29.2679 38.1945C28.0261 38.1945 26.9983 39.0937 26.9983 40.6994V48H24.0008V36.0107H26.9983V37.2525C27.7049 36.289 28.8611 35.6253 30.2957 35.6253C32.7151 35.6253 34.5565 37.5094 34.5565 40.1213H34.5351Z" fill="#282828"/>
<path d="M48.0241 36.0107V48H45.0266V36.0107H48.0241Z" fill="#282828"/>
<path d="M41.0877 36.0107V48H38.0901V36.0107H41.0877Z" fill="#282828"/>
<path d="M20.1044 36.0107V48H17.1068V36.0107H20.1044Z" fill="#282828"/>
<path d="M46.5256 34.9616C47.6017 34.9616 48.474 34.1085 48.474 33.0562C48.474 32.0039 47.6017 31.1508 46.5256 31.1508C45.4495 31.1508 44.5772 32.0039 44.5772 33.0562C44.5772 34.1085 45.4495 34.9616 46.5256 34.9616Z" fill="#282828"/>
<path d="M39.5884 34.9616C40.6645 34.9616 41.5369 34.1085 41.5369 33.0562C41.5369 32.0039 40.6645 31.1508 39.5884 31.1508C38.5123 31.1508 37.64 32.0039 37.64 33.0562C37.64 34.1085 38.5123 34.9616 39.5884 34.9616Z" fill="#282828"/>
<path d="M18.6054 34.9616C19.6815 34.9616 20.5539 34.1085 20.5539 33.0562C20.5539 32.0039 19.6815 31.1508 18.6054 31.1508C17.5293 31.1508 16.657 32.0039 16.657 33.0562C16.657 34.1085 17.5293 34.9616 18.6054 34.9616Z" fill="#282828"/>
<path d="M0.0214321 30.016V0.0214096H15.0306V18.0268C15.0306 18.7547 14.8808 22.4799 14.8379 24.0214C14.8165 25.0276 14.7095 26.0125 14.6452 27.0187C14.6452 26.9545 14.4526 28.5174 14.4526 28.5174C14.4526 28.5174 14.4312 28.7529 14.2599 29.2667C14.2599 29.3309 14.1956 29.4808 14.0672 29.6521C13.9815 29.7591 13.9172 29.8234 13.8744 29.8448C13.7888 29.909 13.7245 29.9304 13.6817 29.9304C13.6175 29.9518 13.5533 29.9732 13.489 29.9732C13.4248 29.9732 13.3606 29.9732 13.2963 29.9946C13.2963 29.9946 13.1893 29.9946 13.1036 29.9946C12.9752 29.9946 12.1616 29.9946 11.0482 29.9946H0L0.0214321 30.016Z" fill="#282828"/>
<path d="M31.5175 0H16.5082V29.9946H31.5175V0Z" fill="#282828"/>
<path d="M48.0253 0H33.0158V29.9946H48.0251L48.0253 0Z" fill="#282828"/>
<path d="M76.9379 5.864C77.3379 6.456 77.8979 7.464 78.2019 8.056L76.9219 8.6C76.5859 7.96 76.0899 7 75.6579 6.392L76.9379 5.864ZM78.8259 5.144C79.2419 5.736 79.8339 6.76 80.1219 7.32L78.8419 7.864C78.5059 7.192 77.9939 6.264 77.5619 5.656L78.8259 5.144ZM70.9379 11.896C72.9059 13.032 75.8819 15.08 77.3539 16.264L75.8339 18.072C74.4259 16.76 71.4019 14.536 69.5299 13.352L70.9379 11.896ZM78.4739 9.176C78.2979 9.48 78.0899 9.928 77.9459 10.328C77.4499 11.8 76.4739 13.848 75.0499 15.624C73.5459 17.496 71.4819 19.288 68.4259 20.44L66.5699 18.84C69.9139 17.8 71.8339 16.12 73.1939 14.52C74.2819 13.24 75.2739 11.416 75.5779 10.168H70.1539L70.9059 8.36H75.4499C75.9459 8.36 76.4899 8.28 76.8419 8.168L78.4739 9.176ZM73.1779 6.712C72.7939 7.272 72.3939 8.008 72.2019 8.344C71.1139 10.28 69.0659 12.728 66.7779 14.312L65.0499 12.984C67.8499 11.256 69.3379 9.048 70.1379 7.672C70.3779 7.272 70.7299 6.536 70.8739 5.992L73.1779 6.712Z" fill="#282828"/>
<path d="M81.4659 12.792C84.3299 12.056 86.6659 11.016 88.4579 9.912C90.0899 8.904 91.9139 7.304 92.9539 6.04L94.6819 7.672C93.2259 9.144 91.2739 10.648 89.3859 11.784C87.5779 12.856 84.9859 14.056 82.4579 14.808L81.4659 12.792ZM88.1219 10.952L90.3939 10.408V17.624C90.3939 18.328 90.4259 19.32 90.5379 19.72H87.9939C88.0579 19.336 88.1219 18.328 88.1219 17.624V10.952Z" fill="#282828"/>
<path d="M99.1779 8.136C99.7699 8.2 100.506 8.232 101.066 8.232C102.41 8.232 106.81 8.232 107.69 8.232C108.33 8.232 109.002 8.2 109.466 8.136V10.456C109.002 10.44 108.25 10.408 107.69 10.408C106.842 10.408 101.962 10.408 101.066 10.408C100.458 10.408 99.7219 10.44 99.1779 10.456V8.136ZM97.8339 15.976C98.4579 16.008 99.2099 16.072 99.8499 16.072C100.858 16.072 108.026 16.072 109.034 16.072C109.562 16.072 110.25 16.024 110.794 15.976V18.424C110.218 18.36 109.498 18.312 109.034 18.312C108.026 18.312 100.858 18.312 99.8499 18.312C99.2099 18.312 98.4419 18.36 97.8339 18.424V15.976Z" fill="#282828"/>
<path d="M113.93 11.592C114.522 11.64 115.674 11.704 116.506 11.704C118.394 11.704 123.674 11.704 125.098 11.704C125.85 11.704 126.554 11.624 126.986 11.592V14.12C126.602 14.104 125.786 14.024 125.114 14.024C123.658 14.024 118.394 14.024 116.506 14.024C115.61 14.024 114.538 14.072 113.93 14.12V11.592Z" fill="#282828"/>
<path d="M76.4419 34.944C76.4419 38.896 75.4819 41.312 71.6099 43.024L69.8979 41.408C73.0019 40.336 74.3459 38.944 74.3459 35.008V30.752C74.3459 30.112 74.3139 29.584 74.2499 29.28H76.5379C76.5059 29.6 76.4419 30.112 76.4419 30.752V34.944ZM70.6499 29.408C70.6179 29.712 70.5539 30.224 70.5539 30.864V36.576C70.5539 37.296 70.6019 37.952 70.6339 38.256H68.3939C68.4259 37.952 68.4739 37.296 68.4739 36.576V30.848C68.4739 30.4 68.4419 29.904 68.3779 29.408H70.6499ZM65.3859 32.288C65.6739 32.336 66.3299 32.448 67.1139 32.448H77.6099C78.4579 32.448 78.9379 32.4 79.3859 32.336V34.464C79.0339 34.416 78.4579 34.416 77.6259 34.416H67.1139C66.3139 34.416 65.7539 34.448 65.3859 34.464V32.288Z" fill="#282828"/>
<path d="M81.9299 34.592C82.5219 34.64 83.6739 34.704 84.5059 34.704C86.3939 34.704 91.6739 34.704 93.0979 34.704C93.8499 34.704 94.5539 34.624 94.9859 34.592V37.12C94.6019 37.104 93.7859 37.024 93.1139 37.024C91.6579 37.024 86.3939 37.024 84.5059 37.024C83.6099 37.024 82.5379 37.072 81.9299 37.12V34.592Z" fill="#282828"/>
<path d="M108.282 29.04C108.682 29.632 109.242 30.64 109.546 31.232L108.266 31.792C107.93 31.136 107.45 30.192 107.018 29.568L108.282 29.04ZM110.17 28.32C110.586 28.928 111.178 29.936 111.466 30.496L110.186 31.056C109.866 30.384 109.338 29.456 108.906 28.848L110.17 28.32ZM101.37 29.744C101.306 30.224 101.258 30.944 101.258 31.408C101.258 32.384 101.258 38.272 101.258 39.472C101.258 40.176 101.578 40.352 102.298 40.48C102.778 40.56 103.434 40.576 104.138 40.576C105.818 40.576 108.394 40.384 109.722 40.032V42.368C108.202 42.592 105.786 42.688 104.026 42.688C102.986 42.688 102.01 42.624 101.322 42.512C99.9459 42.256 99.1299 41.504 99.1299 40.112C99.1299 38.272 99.1299 32.4 99.1299 31.408C99.1299 31.04 99.0819 30.224 99.0179 29.744H101.37ZM100.314 34.656C102.378 34.208 105.114 33.344 106.794 32.656C107.354 32.416 107.898 32.16 108.538 31.792L109.386 33.808C108.778 34.064 108.058 34.368 107.53 34.576C105.642 35.296 102.506 36.24 100.33 36.752L100.314 34.656Z" fill="#282828"/>
<path d="M125.802 31.168C125.674 31.344 125.386 31.824 125.242 32.16C124.586 33.68 123.402 35.856 122.026 37.456C120.234 39.52 117.818 41.504 115.338 42.672L113.674 40.944C116.266 39.984 118.73 38.032 120.234 36.368C121.29 35.168 122.266 33.584 122.634 32.448C121.962 32.448 117.882 32.448 117.194 32.448C116.538 32.448 115.658 32.528 115.306 32.56V30.272C115.738 30.336 116.73 30.384 117.194 30.384C118.042 30.384 122.138 30.384 122.842 30.384C123.546 30.384 124.17 30.304 124.506 30.192L125.802 31.168ZM122.234 36.128C123.882 37.472 126.154 39.856 127.194 41.136L125.37 42.72C124.186 41.072 122.442 39.168 120.73 37.616L122.234 36.128Z" fill="#282828"/>
<path d="M136.842 41.04H142.362V42.736H136.842V41.04ZM135.946 36.624H143.29V43.36H141.434V38.32H137.706V43.424H135.946V36.624ZM135.386 29.168H142.714V30.928H135.386V29.168ZM141.818 29.168H143.61C143.61 29.168 143.594 29.632 143.578 29.856C143.498 33.2 143.386 34.592 142.986 35.104C142.65 35.52 142.298 35.648 141.786 35.712C141.354 35.776 140.618 35.776 139.834 35.776C139.786 35.216 139.578 34.48 139.274 34C139.946 34.064 140.602 34.064 140.906 34.064C141.13 34.064 141.29 34.032 141.418 33.888C141.658 33.616 141.754 32.464 141.818 29.44V29.168ZM137.674 29.888H139.562C139.322 32.592 138.698 34.848 135.866 36.192C135.642 35.744 135.13 35.072 134.73 34.752C137.13 33.712 137.498 31.952 137.674 29.888ZM131.354 28.432L133.018 29.056C132.362 30.272 131.626 31.696 131.002 32.592L129.722 32.032C130.298 31.088 130.986 29.552 131.354 28.432ZM133.194 30.32L134.746 31.024C133.594 32.864 132.026 35.088 130.81 36.48L129.706 35.856C130.89 34.4 132.362 32.048 133.194 30.32ZM128.89 32.224L129.802 30.912C130.65 31.648 131.642 32.656 132.058 33.392L131.066 34.88C130.682 34.112 129.706 32.992 128.89 32.224ZM132.714 34.144L133.978 33.616C134.602 34.688 135.21 36.096 135.402 37.024L134.042 37.632C133.866 36.704 133.322 35.248 132.714 34.144ZM128.874 35.472C130.346 35.424 132.506 35.344 134.618 35.248L134.602 36.768C132.634 36.912 130.586 37.04 129.034 37.152L128.874 35.472ZM133.066 38.128L134.41 37.696C134.81 38.608 135.226 39.808 135.402 40.608L133.994 41.104C133.834 40.304 133.418 39.072 133.066 38.128ZM129.562 37.824L131.146 38.096C130.986 39.632 130.634 41.232 130.17 42.256C129.834 42.048 129.114 41.712 128.714 41.552C129.178 40.608 129.434 39.184 129.562 37.824ZM131.354 36.32H133.034V43.456H131.354V36.32Z" fill="#282828"/>
<path d="M152.41 30.336C151.162 32.384 148.714 34.592 146.026 36.016C145.786 35.536 145.242 34.816 144.826 34.416C147.674 33.056 150.17 30.496 151.274 28.368H153.354C155.002 31.072 157.546 33.184 160.17 34.192C159.674 34.704 159.242 35.36 158.89 35.952C156.33 34.656 153.706 32.416 152.41 30.336ZM154.186 34.272H156.186V43.44H154.186V34.272ZM148.666 34.352H150.634V36.336C150.634 38.608 150.314 41.472 147.162 43.44C146.826 43.024 146.074 42.384 145.562 42.08C148.378 40.4 148.666 38.144 148.666 36.288V34.352Z" fill="#282828"/>
<path d="M172.442 34.944C172.442 38.896 171.482 41.312 167.61 43.024L165.898 41.408C169.002 40.336 170.346 38.944 170.346 35.008V30.752C170.346 30.112 170.314 29.584 170.25 29.28H172.538C172.506 29.6 172.442 30.112 172.442 30.752V34.944ZM166.65 29.408C166.618 29.712 166.554 30.224 166.554 30.864V36.576C166.554 37.296 166.602 37.952 166.634 38.256H164.394C164.426 37.952 164.474 37.296 164.474 36.576V30.848C164.474 30.4 164.442 29.904 164.378 29.408H166.65ZM161.386 32.288C161.674 32.336 162.33 32.448 163.114 32.448H173.61C174.458 32.448 174.938 32.4 175.386 32.336V34.464C175.034 34.416 174.458 34.416 173.626 34.416H163.114C162.314 34.416 161.754 34.448 161.386 34.464V32.288Z" fill="#282828"/>
<path d="M177.466 35.792C180.33 35.056 182.666 34.016 184.458 32.912C186.09 31.904 187.914 30.304 188.954 29.04L190.682 30.672C189.226 32.144 187.274 33.648 185.386 34.784C183.578 35.856 180.986 37.056 178.458 37.808L177.466 35.792ZM184.122 33.952L186.394 33.408V40.624C186.394 41.328 186.426 42.32 186.538 42.72H183.994C184.058 42.336 184.122 41.328 184.122 40.624V33.952Z" fill="#282828"/>
<path d="M197.482 40.48C197.482 39.248 197.482 32.624 197.482 31.28C197.482 30.704 197.434 29.92 197.322 29.344H199.818C199.754 29.92 199.674 30.608 199.674 31.28C199.674 33.04 199.69 39.296 199.69 40.48C199.69 40.928 199.754 42.048 199.834 42.704H197.322C197.434 42.08 197.482 41.104 197.482 40.48ZM199.21 33.488C201.338 34.08 204.794 35.344 206.362 36.112L205.466 38.336C203.642 37.392 200.954 36.368 199.21 35.792V33.488Z" fill="#282828"/>
</svg>
