<svg width="91" height="90" viewBox="0 0 91 90" fill="none" xmlns="http://www.w3.org/2000/svg">
<path d="M0.0380859 59.0499H9.88584C19.5327 59.0499 26.1247 64.9509 26.1247 74.5049C26.1247 84.0588 19.5729 89.9598 9.88584 89.9598H0.0380859V59.0098V59.0499ZM5.90655 84.5405H9.32317C16.5985 84.5405 20.1758 80.6868 20.1758 74.545C20.1758 68.4032 16.5985 64.5495 9.32317 64.5495H5.90655V84.5807V84.5405Z" fill="white"/>
<path d="M64.8327 75.2273V89.9999H59.2053V76.3112C59.2053 73.3005 57.276 71.6145 54.9446 71.6145C52.6133 71.6145 50.6839 73.3005 50.6839 76.3112V89.9999H45.0566V67.5199H50.6839V69.8482C52.0104 68.0418 54.181 66.7974 56.874 66.7974C61.4161 66.7974 64.8729 70.3299 64.8729 75.2273H64.8327Z" fill="white"/>
<path d="M90.1556 67.52V90H84.5283V67.52H90.1556Z" fill="white"/>
<path d="M77.1332 67.52V89.9999H71.5059V67.52H77.1332Z" fill="white"/>
<path d="M37.7416 67.52V89.9999H32.1143V67.52H37.7416Z" fill="white"/>
<path d="M87.3422 65.5531C89.3624 65.5531 91 63.9536 91 61.9804C91 60.0073 89.3624 58.4077 87.3422 58.4077C85.3221 58.4077 83.6846 60.0073 83.6846 61.9804C83.6846 63.9536 85.3221 65.5531 87.3422 65.5531Z" fill="white"/>
<path d="M74.3189 65.5531C76.339 65.5531 77.9767 63.9536 77.9767 61.9804C77.9767 60.0073 76.339 58.4077 74.3189 58.4077C72.2988 58.4077 70.6611 60.0073 70.6611 61.9804C70.6611 63.9536 72.2988 65.5531 74.3189 65.5531Z" fill="white"/>
<path d="M34.9273 65.5531C36.9474 65.5531 38.5851 63.9536 38.5851 61.9804C38.5851 60.0073 36.9474 58.4077 34.9273 58.4077C32.9072 58.4077 31.2695 60.0073 31.2695 61.9804C31.2695 63.9536 32.9072 65.5531 34.9273 65.5531Z" fill="white"/>
<path d="M0.0402345 56.28V0.0400391H28.217V33.8001C28.217 35.1649 27.9356 42.1498 27.8553 45.04C27.8151 46.9267 27.6141 48.7733 27.4935 50.66C27.4935 50.5396 27.1318 53.47 27.1318 53.47C27.1318 53.47 27.0916 53.9116 26.77 54.875C26.77 54.9954 26.6495 55.2764 26.4083 55.5976C26.2475 55.7983 26.1268 55.9187 26.0464 55.9589C25.8856 56.0793 25.7651 56.1194 25.6847 56.1194C25.5641 56.1596 25.4435 56.1997 25.3229 56.1997C25.2024 56.1997 25.0818 56.1997 24.9612 56.2398C24.9612 56.2398 24.7602 56.2398 24.5995 56.2398C24.3583 56.2398 22.8309 56.2398 20.7407 56.2398H16.8819H0L0.0402345 56.28Z" fill="white"/>
<path d="M59.1681 0H30.9912V56.24H59.1681V0Z" fill="white"/>
<path d="M90.1574 0H61.9805V56.24H90.1574V0Z" fill="white"/>
</svg>
