<svg width="48" height="135" viewBox="0 0 48 135" fill="none" xmlns="http://www.w3.org/2000/svg">
<path d="M14.8033 121.527C15.4919 122.271 17.7292 118.369 16.1486 114.893C14.5712 111.424 15.2366 108.935 14.9701 108.982C14.6567 109.034 7.80031 115.732 13.2562 121.445C13.2562 121.445 14.1305 122.108 13.713 121.115C13.1244 119.704 13.0938 116.541 13.5358 115.396C13.5358 115.396 13.336 119.949 14.8033 121.527ZM20.3029 112.706C20.3029 112.706 21.2247 113.165 20.6666 112.318C19.875 111.12 19.2891 108.202 19.4969 107.063C19.4969 107.063 19.9943 111.327 21.6252 112.528C22.3979 113.095 23.8972 109.064 21.8254 106.137C19.7549 103.208 19.9359 100.789 19.6954 100.883C19.4152 100.985 14.2523 108.401 20.3029 112.706ZM26.1026 103.795C25.3034 102.644 24.6685 99.7933 24.8452 98.6718C24.8452 98.6718 25.4109 102.72 27.0333 103.859C27.7987 104.396 29.1994 100.541 27.1101 97.7197C25.0221 94.8923 25.1469 92.5208 24.9165 92.6113C24.644 92.7197 19.7355 100.091 25.7514 104.186C25.7514 104.186 26.6677 104.612 26.1026 103.795ZM30.549 92.7774C29.5587 91.8429 28.3887 89.2608 28.3349 88.1594C28.3349 88.1594 29.734 91.9419 31.5044 92.6982C32.3396 93.0549 32.8442 89.0562 30.2967 86.7926C27.7479 84.529 27.3968 82.245 27.1925 82.3794C26.9577 82.5401 23.759 90.5399 30.2937 93.2155C30.294 93.2158 31.248 93.4377 30.549 92.7774ZM30.8857 78.6822C30.8857 78.6822 32.4865 82.3888 34.2973 83.0458C35.1514 83.3555 35.437 79.3304 32.7708 77.213C30.1042 75.0924 29.6289 72.8348 29.4358 72.9781C29.2068 73.1505 26.4463 81.311 33.1129 83.6302C33.1129 83.6302 34.0816 83.7996 33.3447 83.1748C32.3063 82.292 30.9971 79.7803 30.8857 78.6822ZM33.2849 69.6276C33.2849 69.6276 35.1004 73.0887 36.8951 73.5939C37.742 73.8276 37.7289 69.9194 35.0004 68.065C32.2684 66.2133 31.6483 64.0666 31.4684 64.2184C31.2625 64.3993 29.1833 72.49 35.7936 74.2423C35.7936 74.2423 36.7386 74.3358 35.9847 73.7924C34.9177 73.0097 33.4706 70.679 33.2849 69.6276ZM34.2583 58.5462C34.2583 58.5462 36.5723 61.6013 38.3892 61.8002C39.2487 61.8904 38.6111 58.1081 35.6718 56.7586C32.7285 55.4064 31.7821 53.429 31.6355 53.6042C31.4599 53.8143 30.7464 61.9897 37.4275 62.609C37.4275 62.609 38.3616 62.5477 37.5392 62.136C36.3806 61.5543 34.6089 59.5363 34.2583 58.5462ZM33.8853 49.0976C33.8853 49.0976 36.195 52.0944 37.9913 52.2723C38.838 52.357 38.177 48.6273 35.2615 47.3191C32.3454 46.0045 31.3944 44.0593 31.2497 44.2406C31.0826 44.4479 30.4434 52.5237 37.0493 53.0789C37.0493 53.0789 37.9687 53.0088 37.1553 52.6144C36.0066 52.0504 34.2392 50.0703 33.8853 49.0976ZM34.8628 38.3113C31.873 37.3823 30.7175 35.6007 30.5998 35.7877C30.4595 36.0155 30.7797 43.9482 37.2754 43.7087C37.2754 43.7087 38.1642 43.5335 37.3262 43.2472C36.1428 42.8325 34.1884 41.1123 33.7302 40.2067C33.7302 40.2067 36.3269 42.8531 38.1003 42.8121C38.9355 42.7948 37.8553 39.2403 34.8628 38.3113ZM30.993 29.5375C30.993 29.5375 34.0172 31.6815 35.7529 31.3218C36.5737 31.1557 34.8844 27.852 31.7772 27.4694C28.6716 27.0836 27.2228 25.5416 27.139 25.7462C27.0405 25.9915 28.75 33.7491 35.0993 32.3528C35.0993 32.3528 35.943 32.0198 35.0701 31.8856C33.8288 31.6931 31.6063 30.3491 30.993 29.5375ZM28.0523 18.5524C25.3948 18.2251 24.1549 16.9023 24.084 17.0772C23.9999 17.2903 25.4642 23.9264 30.8985 22.732C30.8985 22.732 31.6177 22.4485 30.8699 22.3349C29.8083 22.1652 27.9046 21.0173 27.3826 20.3221C27.3826 20.3221 29.9705 22.1534 31.4569 21.8495C32.1542 21.7098 30.7129 18.8824 28.0523 18.5524ZM23.3926 12.2642C23.3926 12.2642 26.2243 14.1101 27.7973 13.7273C28.5411 13.5433 26.8881 10.5905 24.0375 10.3451C21.1856 10.1026 19.8125 8.74154 19.7429 8.93432C19.6615 9.16203 21.4857 16.1837 27.2373 14.6882C27.2373 14.6882 27.9958 14.3609 27.1898 14.2674C26.0548 14.1304 23.9783 12.9795 23.3926 12.2642ZM18.8006 3.4753C19.901 5.94905 23.0136 6.50402 22.9443 5.78569C22.7936 4.26101 20.2838 2.30979 20.2838 2.30979C21.0985 2.60818 22.7559 4.10343 23.2285 5.07313C23.5589 5.76231 23.6173 4.97962 23.6173 4.97962C23.1431 -0.613601 16.3965 -0.058624 16.2255 0.084383C16.0762 0.207039 17.7033 1.00733 18.8006 3.4753ZM17.5277 118.845C19.285 120.081 23.7331 119.248 23.7331 119.248C22.6704 119.85 19.5531 120.262 18.0858 119.87C17.0504 119.596 17.8234 120.373 17.8234 120.373C24.2057 125.017 29.8301 117.236 29.8389 116.915C29.8446 116.646 27.4929 117.657 23.8595 116.57C20.2245 115.483 16.6982 118.258 17.5277 118.845ZM35.7587 107.65C35.7603 107.393 33.5651 108.389 30.1261 107.425C26.6896 106.461 23.442 109.257 24.2306 109.788C25.9068 110.927 30.0548 109.946 30.0548 109.946C29.0634 110.53 26.1389 110.968 24.7529 110.627C23.7727 110.387 24.5121 111.105 24.5121 111.105C30.5957 115.367 35.757 107.951 35.7587 107.65ZM40.4607 96.5102C40.4189 96.2649 38.4569 97.5849 34.9786 97.2173C31.5019 96.849 28.9239 100.027 29.7722 100.418C31.5757 101.242 35.318 99.6646 35.318 99.6646C34.4511 100.392 31.6961 101.294 30.3011 101.192C29.3138 101.119 30.149 101.692 30.149 101.692C36.7127 104.811 40.5058 96.8023 40.4607 96.5102ZM43.6782 84.4068C43.6059 84.1758 41.8947 85.7093 38.5005 85.8234C35.102 85.9373 32.9663 89.3519 33.8378 89.6118C35.6822 90.161 39.1515 88.1396 39.1515 88.1396C38.4137 88.9517 35.8834 90.1959 34.5262 90.2836C33.5667 90.348 34.4451 90.7891 34.4451 90.7891C41.1813 92.9061 43.761 84.6813 43.6782 84.4068ZM46.3169 73.5941C46.2254 73.3664 44.6467 75.0341 41.2684 75.4255C37.8917 75.8171 36.0372 79.3889 36.9246 79.5757C38.8066 79.9758 42.1022 77.6775 42.1022 77.6775C41.4338 78.548 39.0111 79.9904 37.6637 80.192C36.714 80.335 37.6249 80.7032 37.6249 80.7032C44.5075 82.2628 46.4215 73.8568 46.3169 73.5941ZM47.4943 62.9448C47.4014 62.7316 45.9314 64.4109 42.6792 64.9252C39.4242 65.4392 37.7699 68.9731 38.6341 69.1191C40.4738 69.4348 43.5753 67.0689 43.5753 67.0689C42.9604 67.9423 40.671 69.4409 39.3748 69.6859C38.4629 69.8581 39.3576 70.1765 39.3576 70.1765C46.0835 71.4179 47.6076 63.2019 47.4943 62.9448ZM47.4667 51.4401C47.3493 51.2386 46.0881 53.0319 42.9604 53.8674C39.839 54.6971 38.5775 58.3185 39.4371 58.3713C41.2626 58.4879 44.0537 55.8651 44.0537 55.8651C43.5431 56.7823 41.4568 58.4761 40.2188 58.8501C39.3432 59.113 40.2518 59.3352 40.2518 59.3352C46.943 59.8547 47.5999 51.6767 47.4667 51.4401ZM44.9222 39.7482C44.7554 39.5876 44.0638 41.6409 41.3394 43.3231C38.6163 45.0026 38.4413 48.7879 39.2733 48.5924C41.0322 48.1832 42.9358 44.9061 42.9358 44.9061C42.7098 45.9195 41.2121 48.1161 40.1448 48.8259C39.3909 49.3225 40.313 49.2697 40.313 49.2697C46.7898 47.8592 45.1133 39.9294 44.9222 39.7482ZM42.5514 28.515C42.3687 28.3836 41.9411 30.466 39.4895 32.4287C37.0406 34.3915 37.3188 38.0951 38.1049 37.8058C39.7664 37.1953 41.2323 33.7779 41.2323 33.7779C41.1294 34.7886 39.9348 37.1078 38.9775 37.9254C38.305 38.4983 39.1952 38.3401 39.1952 38.3401C45.3312 36.1849 42.7603 28.6729 42.5514 28.515ZM38.37 18.2895C38.1685 18.1872 38.0874 20.3136 35.9935 22.6561C33.9001 25.0014 34.7828 28.6088 35.5107 28.1938C37.0507 27.3118 37.934 23.6957 37.934 23.6957C38.0003 24.7124 37.2017 27.2007 36.394 28.1646C35.8228 28.845 36.6753 28.5384 36.6753 28.5384C42.3717 25.3898 38.6021 18.4094 38.37 18.2895ZM34.29 10.1845C34.1191 10.091 33.9959 11.9075 32.1485 13.8587C30.297 15.8157 30.9611 18.9231 31.5918 18.5845C32.9332 17.8717 33.7797 14.799 33.7797 14.799C33.8102 15.6694 33.0648 17.7782 32.3503 18.5845C31.8427 19.1511 32.5807 18.9058 32.5807 18.9058C37.5318 16.3589 34.4871 10.2923 34.29 10.1845ZM27.9467 0.686113C27.7495 0.621759 28.0089 2.54933 26.4906 4.99118C24.9727 7.43577 26.3327 10.5407 26.9228 10.0531C28.1695 9.0105 28.3986 5.62233 28.3986 5.62233C28.6203 6.52163 28.2896 8.88784 27.713 9.88642C27.3067 10.5874 28.0259 10.1755 28.0259 10.1755C32.6572 6.43115 28.1741 0.752941 27.9467 0.686113ZM0.5 135C0.5 135 11.5675 129.345 14.8033 121.527C14.8033 121.527 9.49372 127.756 1.85129 131.378L0.5 135Z" fill="#B69333"/>
</svg>
