<svg width="48" height="135" viewBox="0 0 48 135" fill="none" xmlns="http://www.w3.org/2000/svg">
<path d="M34.4652 115.396C34.9073 116.541 34.8742 119.704 34.2869 121.115C33.8708 122.108 34.7451 121.445 34.7451 121.445C40.2028 115.732 33.3443 109.034 33.0298 108.982C32.7627 108.935 33.4282 111.424 31.8524 114.893C30.272 118.369 32.508 122.271 33.198 121.527C34.664 119.949 34.4652 115.396 34.4652 115.396ZM28.3047 100.883C28.0666 100.789 28.2449 103.208 26.1746 106.137C24.1038 109.064 25.6031 113.094 26.3748 112.528C28.0057 111.327 28.5073 107.063 28.5073 107.063C28.7121 108.202 28.1261 111.12 27.3342 112.317C26.7745 113.164 27.6982 112.706 27.6982 112.706C33.7493 108.401 28.5843 100.985 28.3047 100.883ZM22.2482 104.186C28.2626 100.091 23.3573 92.7194 23.0845 92.6108C22.8527 92.5206 22.9788 94.8918 20.8908 97.7192C18.8015 100.541 20.2019 104.396 20.9665 103.859C22.5889 102.719 23.1541 98.6713 23.1541 98.6713C23.3311 99.7928 22.696 102.643 21.897 103.794C21.3302 104.612 22.2482 104.186 22.2482 104.186ZM17.7068 93.2158C24.2417 90.5402 21.0446 82.5403 20.8054 82.3797C20.6039 82.2455 20.2527 84.5295 17.7035 86.7929C15.156 89.0565 15.6595 93.0552 16.4945 92.6985C18.2663 91.9422 19.664 88.1597 19.664 88.1597C19.6119 89.2611 18.4419 91.8429 17.4515 92.7777C16.7498 93.4378 17.7068 93.2158 17.7068 93.2158ZM14.6533 83.1743C13.9183 83.7991 14.8868 83.6297 14.8868 83.6297C21.5565 81.3105 18.7927 73.15 18.5636 72.9776C18.3722 72.8343 17.8952 75.0922 15.2316 77.2125C12.5623 79.3301 12.8495 83.3549 13.7034 83.0453C15.5115 82.3883 17.1135 78.6816 17.1135 78.6816C17.0007 79.7803 15.6928 82.292 14.6533 83.1743ZM12.0143 73.7924C11.2588 74.3359 12.2057 74.2424 12.2057 74.2424C18.8189 72.49 16.738 64.3993 16.5308 64.2184C16.3514 64.0666 15.7305 66.2133 13.0005 68.065C10.2684 69.9194 10.2569 73.8279 11.1039 73.5939C12.899 73.0887 14.7158 69.6276 14.7158 69.6276C14.5269 70.679 13.0814 73.0098 12.0143 73.7924ZM10.4585 62.136C9.63931 62.5477 10.5718 62.609 10.5718 62.609C17.2546 61.9897 16.5384 53.8144 16.3645 53.6042C16.2165 53.4291 15.2709 55.4064 12.3308 56.7586C9.38865 58.1081 8.75217 61.8904 9.60927 61.8002C11.4291 61.6016 13.7416 58.5462 13.7416 58.5462C13.3918 59.5363 11.6184 61.5543 10.4585 62.136ZM10.8443 52.6145C10.0322 53.0086 10.9516 53.079 10.9516 53.079C17.5575 52.5237 16.9182 44.4479 16.7487 44.2406C16.6051 44.0594 15.6524 46.0045 12.7365 47.3191C9.82089 48.6273 9.15956 52.3571 10.0077 52.2724C11.807 52.0944 14.1154 49.0976 14.1154 49.0976C13.7615 50.0703 11.9924 52.0504 10.8443 52.6145ZM9.90007 42.8122C11.6719 42.8531 14.2705 40.2067 14.2705 40.2067C13.8123 41.1123 11.8562 42.8328 10.6758 43.2472C9.83481 43.5335 10.7225 43.7087 10.7225 43.7087C17.2183 43.9485 17.5386 36.0158 17.3994 35.7878C17.2806 35.6008 16.1294 37.3826 13.1379 38.3113C10.1423 39.2403 9.06372 42.7948 9.90007 42.8122ZM12.932 31.8856C12.0566 32.0198 12.899 32.3529 12.899 32.3529C19.2509 33.7488 20.9605 25.9912 20.8619 25.7462C20.7778 25.5416 19.3309 27.0836 16.222 27.4694C13.1147 27.852 11.4272 31.1554 12.2475 31.3218C13.9846 31.6813 17.0051 29.5375 17.0051 29.5375C16.3945 30.3491 14.1703 31.6931 12.932 31.8856ZM16.5423 21.8498C18.0301 22.1537 20.6153 20.3224 20.6153 20.3224C20.0933 21.0176 18.1896 22.1655 17.1296 22.3352C16.3814 22.4488 17.102 22.7323 17.102 22.7323C22.5365 23.9267 24.0009 17.2906 23.9168 17.0775C23.8444 16.9026 22.6059 18.2254 19.9453 18.5527C17.2847 18.8824 15.8438 21.7098 16.5423 21.8498ZM20.8081 14.2677C20.0062 14.3612 20.7633 14.6885 20.7633 14.6885C26.5124 16.1837 28.338 9.16234 28.2566 8.93463C28.187 8.74184 26.8141 10.1029 23.9648 10.3454C21.1145 10.5908 19.4601 13.5436 20.2022 13.7276C21.7772 14.1104 24.6059 12.2645 24.6059 12.2645C24.0213 12.9795 21.9462 14.1305 20.8081 14.2677ZM31.7757 0.084418C31.6017 -0.058589 24.8563 -0.613841 24.3823 4.97938C24.3823 4.97938 24.4402 5.76207 24.7709 5.07289C25.2421 4.10319 26.8996 2.60794 27.7157 2.30955C27.7157 2.30955 25.2072 4.26077 25.0551 5.78545C24.9855 6.50378 28.0999 5.94881 29.2005 3.47506C30.2968 1.00736 31.9234 0.207074 31.7757 0.084418ZM24.1401 116.57C20.5083 117.657 18.1565 116.646 18.162 116.915C18.1694 117.236 23.7936 125.017 30.1737 120.373C30.1737 120.373 30.9508 119.596 29.914 119.87C28.448 120.262 25.3306 119.85 24.2649 119.248C24.2649 119.248 28.7161 120.081 30.4735 118.845C31.303 118.258 27.7749 115.483 24.1401 116.57ZM23.4862 111.105C23.4862 111.105 24.23 110.387 23.2483 110.626C21.8623 110.968 18.9377 110.53 17.943 109.945C17.943 109.945 22.0944 110.927 23.7688 109.788C24.5603 109.257 21.3097 106.461 17.872 107.425C14.4343 108.389 12.2374 107.393 12.2404 107.65C12.242 107.951 17.4051 115.367 23.4862 111.105ZM17.8532 101.692C17.8532 101.692 18.6857 101.119 17.6994 101.192C16.3044 101.294 13.548 100.392 12.6811 99.6646C12.6811 99.6646 16.4251 101.242 18.2272 100.418C19.0767 100.027 16.5005 96.849 13.0205 97.2173C9.5421 97.585 7.58161 96.2649 7.53984 96.5102C7.49478 96.8023 11.288 104.811 17.8532 101.692ZM13.5526 90.7888C13.5526 90.7888 14.4343 90.3474 13.4726 90.2833C12.1172 90.1959 9.58525 88.9515 8.84883 88.1393C8.84883 88.1393 12.3187 90.1607 14.1632 89.6115C15.0345 89.3516 12.8957 85.937 9.49978 85.8232C6.10414 85.7091 4.39186 84.1756 4.32086 84.4066C4.23676 84.6813 6.82063 92.9062 13.5526 90.7888ZM10.3774 80.7033C10.3774 80.7033 11.2863 80.335 10.3337 80.192C8.98973 79.9904 6.56642 78.5477 5.89554 77.6776C5.89554 77.6776 9.19424 79.9758 11.0745 79.5757C11.9619 79.389 10.1073 75.8168 6.73188 75.4255C3.35345 75.0344 1.77168 73.3667 1.68321 73.5942C1.57617 73.8568 3.49298 82.2629 10.3774 80.7033ZM8.64022 70.1768C8.64022 70.1768 9.5361 69.8584 8.62275 69.6862C7.32822 69.4409 5.03707 67.9426 4.42408 67.0692C4.42408 67.0692 7.527 69.4351 9.3638 69.1194C10.2337 68.9734 8.57497 65.4395 5.32268 64.9254C2.0693 64.4112 0.598932 62.7319 0.505823 62.9451C0.391688 63.2019 1.9153 71.418 8.64022 70.1768ZM7.74845 59.335C7.74845 59.335 8.65743 59.1128 7.78039 58.8499C6.54212 58.4758 4.45575 56.7817 3.94542 55.8649C3.94542 55.8649 6.7368 58.4877 8.56213 58.3711C9.42196 58.3183 8.16321 54.6969 5.03734 53.8672C1.91312 53.0319 0.648627 51.2383 0.532582 51.4399C0.398788 51.6767 1.05711 59.8547 7.74845 59.335ZM7.68619 49.27C7.68619 49.27 8.60964 49.3228 7.8533 48.8262C6.78895 48.1164 5.28964 45.9198 5.06356 44.9064C5.06356 44.9064 6.96889 48.1835 8.7276 48.5927C9.55849 48.7882 9.38319 45.0029 6.6598 43.3234C3.93832 41.6412 3.24532 39.5879 3.07849 39.7485C2.88381 39.9295 1.2122 47.8592 7.68619 49.27ZM8.80569 38.3404C8.80569 38.3404 9.69583 38.4986 9.02003 37.9257C8.066 37.1081 6.86677 34.7889 6.7682 33.7782C6.7682 33.7782 8.23256 37.1956 9.8957 37.8061C10.6832 38.0954 10.9587 34.3918 8.50834 32.429C6.06073 30.466 5.62986 28.3839 5.44746 28.5153C5.23858 28.6729 2.66919 36.1849 8.80569 38.3404ZM11.3243 28.5384C11.3243 28.5384 12.1768 28.8448 11.6055 28.1647C10.7968 27.2007 9.99919 24.7122 10.0658 23.6957C10.0658 23.6957 10.9502 27.3119 12.4886 28.1938C13.2163 28.6085 14.1009 25.0015 12.0056 22.6562C9.91181 20.3139 9.83072 18.1872 9.63221 18.2895C9.39711 18.4094 5.62849 25.3898 11.3243 28.5384ZM15.4189 18.9058C15.4189 18.9058 16.1556 19.1511 15.6494 18.5846C14.9362 17.7782 14.188 15.6694 14.2197 14.799C14.2197 14.799 15.0678 17.8717 16.4076 18.5846C17.04 18.9231 17.7038 15.8157 15.8523 13.8587C14.0024 11.9075 13.8803 10.0908 13.7107 10.1846C13.5136 10.2924 10.4672 16.3589 15.4189 18.9058ZM19.9761 10.1755C19.9761 10.1755 20.6937 10.5875 20.2849 9.88645C19.7107 8.8876 19.3787 6.52166 19.6004 5.62236C19.6004 5.62236 19.8281 9.01053 21.0751 10.0531C21.6649 10.541 23.025 7.43608 21.5085 4.99121C19.9917 2.54936 20.2514 0.621794 20.0539 0.686148C19.8251 0.752976 15.3419 6.43118 19.9761 10.1755ZM46.1517 131.378C38.506 127.756 33.198 121.527 33.198 121.527C36.4328 129.345 47.5 135 47.5 135L46.1517 131.378Z" fill="#B69333"/>
</svg>
