<svg width="54" height="39" viewBox="0 0 54 39" fill="none" xmlns="http://www.w3.org/2000/svg">
<path d="M17.1961 31.7617C18.4654 31.7617 19.5353 31.4715 20.4057 30.8913C21.3124 30.2747 22.0377 29.4406 22.5817 28.3889C23.162 27.3009 23.579 26.0134 23.8329 24.5265C24.0868 23.0033 24.2137 21.3169 24.2137 19.4673C24.2137 17.6539 24.0868 16.0038 23.8329 14.5169C23.579 12.9937 23.162 11.6881 22.5817 10.6001C22.0014 9.51207 21.258 8.6598 20.3513 8.04327C19.4809 7.42673 18.4292 7.11847 17.1961 7.11847C15.9268 7.11847 14.8388 7.42673 13.9321 8.04327C13.0617 8.62353 12.3364 9.45767 11.7561 10.5457C11.2121 11.6337 10.795 12.9393 10.5049 14.4625C10.251 15.9857 10.1241 17.6539 10.1241 19.4673C10.1241 21.2806 10.251 22.9489 10.5049 24.4721C10.795 25.959 11.2121 27.2465 11.7561 28.3345C12.3364 29.4225 13.0617 30.2747 13.9321 30.8913C14.8388 31.4715 15.9268 31.7617 17.1961 31.7617ZM17.1417 38.9425C14.7118 38.9425 12.4814 38.4891 10.4505 37.5825C8.45582 36.6395 6.73316 35.3339 5.28249 33.6657C3.83182 31.9611 2.70756 29.9121 1.90969 27.5185C1.11182 25.1249 0.712891 22.4411 0.712891 19.4673C0.712891 16.4934 1.11182 13.8097 1.90969 11.4161C2.70756 9.02247 3.83182 6.99153 5.28249 5.32327C6.73316 3.61873 8.45582 2.31313 10.4505 1.40647C12.4814 0.463532 14.73 -0.00793457 17.1961 -0.00793457C19.6985 -0.00793457 21.9652 0.463532 23.9961 1.40647C26.027 2.31313 27.7497 3.61873 29.1641 5.32327C30.6148 6.99153 31.7209 9.02247 32.4825 11.4161C33.2804 13.8097 33.6793 16.4934 33.6793 19.4673C33.6793 22.4411 33.2804 25.1249 32.4825 27.5185C31.6846 29.9121 30.5604 31.9611 29.1097 33.6657C27.659 35.3339 25.9182 36.6395 23.8873 37.5825C21.8564 38.4891 19.6078 38.9425 17.1417 38.9425Z" fill="#56698F"/>
<path d="M44.0935 14.4353H36.0967V8.23372C38.5991 8.16119 40.7569 7.52652 42.5703 6.32972C44.3836 5.09665 45.526 3.21079 45.9975 0.672119H53.2871V38.2625H44.0935V14.4353Z" fill="#56698F"/>
</svg>
