<svg width="64" height="39" viewBox="0 0 64 39" fill="none" xmlns="http://www.w3.org/2000/svg">
<path d="M16.5623 31.7696C17.8316 31.7696 18.9015 31.4795 19.7719 30.8992C20.6786 30.2827 21.4039 29.4485 21.9479 28.3968C22.5282 27.3088 22.9452 26.0213 23.1991 24.5344C23.453 23.0112 23.5799 21.3248 23.5799 19.4752C23.5799 17.6619 23.453 16.0117 23.1991 14.5248C22.9452 13.0016 22.5282 11.696 21.9479 10.608C21.3676 9.52 20.6242 8.66774 19.7175 8.0512C18.8471 7.43467 17.7954 7.1264 16.5623 7.1264C15.293 7.1264 14.205 7.43467 13.2983 8.0512C12.4279 8.63147 11.7026 9.4656 11.1223 10.5536C10.5783 11.6416 10.1612 12.9472 9.8711 14.4704C9.61724 15.9936 9.4903 17.6619 9.4903 19.4752C9.4903 21.2885 9.61724 22.9568 9.8711 24.48C10.1612 25.9669 10.5783 27.2544 11.1223 28.3424C11.7026 29.4304 12.4279 30.2827 13.2983 30.8992C14.205 31.4795 15.293 31.7696 16.5623 31.7696ZM16.5079 38.9504C14.078 38.9504 11.8476 38.4971 9.8167 37.5904C7.82203 36.6475 6.09937 35.3419 4.6487 33.6736C3.19804 31.9691 2.07377 29.92 1.2759 27.5264C0.478035 25.1328 0.0791016 22.4491 0.0791016 19.4752C0.0791016 16.5013 0.478035 13.8176 1.2759 11.424C2.07377 9.0304 3.19804 6.99947 4.6487 5.3312C6.09937 3.62667 7.82203 2.32107 9.8167 1.4144C11.8476 0.471467 14.0962 0 16.5623 0C19.0647 0 21.3314 0.471467 23.3623 1.4144C25.3932 2.32107 27.1159 3.62667 28.5303 5.3312C29.981 6.99947 31.0871 9.0304 31.8487 11.424C32.6466 13.8176 33.0455 16.5013 33.0455 19.4752C33.0455 22.4491 32.6466 25.1328 31.8487 27.5264C31.0508 29.92 29.9266 31.9691 28.4759 33.6736C27.0252 35.3419 25.2844 36.6475 23.2535 37.5904C21.2226 38.4971 18.974 38.9504 16.5079 38.9504Z" fill="#56698F"/>
<path d="M34.9795 38.488C35.0158 36.9285 35.1971 35.5323 35.5235 34.2992C35.8862 33.0299 36.3576 31.8875 36.9379 30.872C37.5182 29.8203 38.1891 28.8592 38.9507 27.9888C39.7486 27.1184 40.619 26.3024 41.5619 25.5408C43.2664 24.0901 45.0979 22.6939 47.0563 21.352C49.0147 19.9739 50.7374 18.632 52.2243 17.3264C52.9859 16.6373 53.5843 15.9301 54.0195 15.2048C54.4547 14.4795 54.6723 13.6453 54.6723 12.7024C54.6723 11.2517 54.2552 10.0912 53.4211 9.2208C52.6232 8.31414 51.4264 7.8608 49.8307 7.8608C48.0536 7.8608 46.7118 8.42294 45.8051 9.5472C45.2611 10.1637 44.844 10.9253 44.5539 11.832C44.3 12.7024 44.155 13.7723 44.1187 15.0416H35.5235C35.5235 12.8656 35.723 11.0523 36.1219 9.6016C36.5208 8.15094 37.1736 6.80907 38.0803 5.576C39.132 4.0528 40.6552 2.81974 42.6499 1.8768C44.6446 0.933869 47.1107 0.462402 50.0483 0.462402C52.2968 0.462402 54.2734 0.770669 55.9779 1.3872C57.7187 2.00374 59.1694 2.856 60.3299 3.944C61.4904 5.032 62.3608 6.30134 62.9411 7.75201C63.5576 9.20267 63.8659 10.744 63.8659 12.376C63.8659 13.6816 63.7027 14.8603 63.3763 15.912C63.0499 16.9275 62.5966 17.8704 62.0163 18.7408C61.436 19.5749 60.7651 20.3547 60.0035 21.08C59.2782 21.7691 58.4984 22.44 57.6643 23.0928C56.8302 23.7819 55.9598 24.4528 55.0531 25.1056C54.1827 25.7221 53.3123 26.3387 52.4419 26.9552C51.5715 27.5717 50.7192 28.2064 49.8851 28.8592C49.0872 29.512 48.3619 30.1829 47.7091 30.872V30.9264H63.9203V38.488H34.9795Z" fill="#56698F"/>
</svg>
