<svg width="66" height="39" viewBox="0 0 66 39" fill="none" xmlns="http://www.w3.org/2000/svg">
<path d="M16.6863 31.7696C17.9557 31.7696 19.0255 31.4795 19.8959 30.8992C20.8026 30.2827 21.5279 29.4485 22.0719 28.3968C22.6522 27.3088 23.0693 26.0213 23.3231 24.5344C23.577 23.0112 23.7039 21.3248 23.7039 19.4752C23.7039 17.6619 23.577 16.0117 23.3231 14.5248C23.0693 13.0016 22.6522 11.696 22.0719 10.608C21.4917 9.52 20.7482 8.66774 19.8415 8.0512C18.9711 7.43467 17.9194 7.1264 16.6863 7.1264C15.417 7.1264 14.329 7.43467 13.4223 8.0512C12.5519 8.63147 11.8266 9.4656 11.2463 10.5536C10.7023 11.6416 10.2853 12.9472 9.99513 14.4704C9.74126 15.9936 9.61433 17.6619 9.61433 19.4752C9.61433 21.2885 9.74126 22.9568 9.99513 24.48C10.2853 25.9669 10.7023 27.2544 11.2463 28.3424C11.8266 29.4304 12.5519 30.2827 13.4223 30.8992C14.329 31.4795 15.417 31.7696 16.6863 31.7696ZM16.6319 38.9504C14.2021 38.9504 11.9717 38.4971 9.94073 37.5904C7.94606 36.6475 6.22339 35.3419 4.77273 33.6736C3.32206 31.9691 2.19779 29.92 1.39993 27.5264C0.602058 25.1328 0.203125 22.4491 0.203125 19.4752C0.203125 16.5013 0.602058 13.8176 1.39993 11.424C2.19779 9.0304 3.32206 6.99947 4.77273 5.3312C6.22339 3.62667 7.94606 2.32107 9.94073 1.4144C11.9717 0.471467 14.2202 0 16.6863 0C19.1887 0 21.4554 0.471467 23.4863 1.4144C25.5173 2.32107 27.2399 3.62667 28.6543 5.3312C30.105 6.99947 31.2111 9.0304 31.9727 11.424C32.7706 13.8176 33.1695 16.5013 33.1695 19.4752C33.1695 22.4491 32.7706 25.1328 31.9727 27.5264C31.1749 29.92 30.0506 31.9691 28.5999 33.6736C27.1493 35.3419 25.4085 36.6475 23.3775 37.5904C21.3466 38.4971 19.0981 38.9504 16.6319 38.9504Z" fill="#56698F"/>
<path d="M51.0547 38.9231C48.4073 38.9231 46.1043 38.6148 44.1459 37.9983C42.2238 37.3818 40.6099 36.4932 39.3043 35.3327C36.5481 32.9028 35.1699 29.5119 35.1699 25.1599H43.8195C43.9283 27.1546 44.5086 28.7866 45.5603 30.0559C46.6121 31.289 48.3166 31.9055 50.6739 31.9055C52.5598 31.9055 53.9923 31.434 54.9715 30.4911C55.987 29.5482 56.4947 28.297 56.4947 26.7375C56.4947 25.1055 55.9507 23.8906 54.8627 23.0927C53.7747 22.2586 52.1971 21.8415 50.1299 21.8415H47.8995V15.4767H49.9123C51.6531 15.4767 53.0494 15.114 54.1011 14.3887C55.1529 13.6271 55.6787 12.5391 55.6787 11.1247C55.6787 9.85537 55.2435 8.8399 54.3731 8.0783C53.539 7.28044 52.3422 6.8815 50.7827 6.8815C48.7881 6.8815 47.3193 7.4255 46.3763 8.5135C45.4697 9.6015 44.9619 10.9615 44.8531 12.5935H36.3123C36.3486 10.7439 36.6931 9.0575 37.3459 7.5343C37.9987 5.97483 38.9417 4.6511 40.1747 3.5631C41.4078 2.43884 42.9129 1.56843 44.6899 0.9519C46.5033 0.335366 48.5705 0.0270996 50.8915 0.0270996C52.9587 0.0270996 54.8265 0.262834 56.4947 0.734301C58.1993 1.20577 59.6499 1.89484 60.8467 2.8015C62.0798 3.70817 63.0227 4.8143 63.6755 6.1199C64.3646 7.4255 64.7091 8.8943 64.7091 10.5263C64.7091 12.4484 64.1833 14.0079 63.1315 15.2047C62.0798 16.4015 60.7198 17.3263 59.0515 17.9791V18.0879C61.1187 18.7044 62.7507 19.7562 63.9475 21.2431C65.1806 22.73 65.7971 24.7247 65.7971 27.2271C65.7971 29.2218 65.3982 30.9626 64.6003 32.4495C63.8025 33.9002 62.7145 35.1151 61.3363 36.0943C59.9945 37.0372 58.435 37.7444 56.6579 38.2159C54.8809 38.6874 53.0131 38.9231 51.0547 38.9231Z" fill="#56698F"/>
</svg>
