<svg width="68" height="39" viewBox="0 0 68 39" fill="none" xmlns="http://www.w3.org/2000/svg">
<path d="M16.9646 31.7696C18.234 31.7696 19.3038 31.4795 20.1742 30.8992C21.0809 30.2827 21.8062 29.4485 22.3502 28.3968C22.9305 27.3088 23.3476 26.0213 23.6014 24.5344C23.8553 23.0112 23.9822 21.3248 23.9822 19.4752C23.9822 17.6619 23.8553 16.0117 23.6014 14.5248C23.3476 13.0016 22.9305 11.696 22.3502 10.608C21.77 9.52 21.0265 8.66774 20.1198 8.0512C19.2494 7.43467 18.1977 7.1264 16.9646 7.1264C15.6953 7.1264 14.6073 7.43467 13.7006 8.0512C12.8302 8.63147 12.1049 9.4656 11.5246 10.5536C10.9806 11.6416 10.5636 12.9472 10.2734 14.4704C10.0196 15.9936 9.89265 17.6619 9.89265 19.4752C9.89265 21.2885 10.0196 22.9568 10.2734 24.48C10.5636 25.9669 10.9806 27.2544 11.5246 28.3424C12.1049 29.4304 12.8302 30.2827 13.7006 30.8992C14.6073 31.4795 15.6953 31.7696 16.9646 31.7696ZM16.9102 38.9504C14.4804 38.9504 12.25 38.4971 10.219 37.5904C8.22438 36.6475 6.50171 35.3419 5.05105 33.6736C3.60038 31.9691 2.47611 29.92 1.67825 27.5264C0.880379 25.1328 0.481445 22.4491 0.481445 19.4752C0.481445 16.5013 0.880379 13.8176 1.67825 11.424C2.47611 9.0304 3.60038 6.99947 5.05105 5.3312C6.50171 3.62667 8.22438 2.32107 10.219 1.4144C12.25 0.471467 14.4985 0 16.9646 0C19.467 0 21.7337 0.471467 23.7646 1.4144C25.7956 2.32107 27.5182 3.62667 28.9326 5.3312C30.3833 6.99947 31.4894 9.0304 32.251 11.424C33.0489 13.8176 33.4478 16.5013 33.4478 19.4752C33.4478 22.4491 33.0489 25.1328 32.251 27.5264C31.4532 29.92 30.3289 31.9691 28.8782 33.6736C27.4276 35.3419 25.6868 36.6475 23.6558 37.5904C21.6249 38.4971 19.3764 38.9504 16.9102 38.9504Z" fill="#56698F"/>
<path d="M53.212 30.0288H35.8584V21.5968L53.1032 0.652832H62.1336V23.0656H67.5192V30.0288H62.1336V38.2976H53.212V30.0288ZM53.212 23.0656V10.2816H53.1032L42.7672 22.9568V23.0656H53.212Z" fill="#56698F"/>
</svg>
