<svg width="66" height="39" viewBox="0 0 66 39" fill="none" xmlns="http://www.w3.org/2000/svg">
<path d="M17.0779 31.7696C18.3473 31.7696 19.4171 31.4795 20.2875 30.8992C21.1942 30.2827 21.9195 29.4485 22.4635 28.3968C23.0438 27.3088 23.4609 26.0213 23.7147 24.5344C23.9686 23.0112 24.0955 21.3248 24.0955 19.4752C24.0955 17.6619 23.9686 16.0117 23.7147 14.5248C23.4609 13.0016 23.0438 11.696 22.4635 10.608C21.8833 9.52 21.1398 8.66774 20.2331 8.0512C19.3627 7.43467 18.311 7.1264 17.0779 7.1264C15.8086 7.1264 14.7206 7.43467 13.8139 8.0512C12.9435 8.63147 12.2182 9.4656 11.6379 10.5536C11.0939 11.6416 10.6769 12.9472 10.3867 14.4704C10.1329 15.9936 10.0059 17.6619 10.0059 19.4752C10.0059 21.2885 10.1329 22.9568 10.3867 24.48C10.6769 25.9669 11.0939 27.2544 11.6379 28.3424C12.2182 29.4304 12.9435 30.2827 13.8139 30.8992C14.7206 31.4795 15.8086 31.7696 17.0779 31.7696ZM17.0235 38.9504C14.5937 38.9504 12.3633 38.4971 10.3323 37.5904C8.33766 36.6475 6.61499 35.3419 5.16433 33.6736C3.71366 31.9691 2.58939 29.92 1.79153 27.5264C0.99366 25.1328 0.594727 22.4491 0.594727 19.4752C0.594727 16.5013 0.99366 13.8176 1.79153 11.424C2.58939 9.0304 3.71366 6.99947 5.16433 5.3312C6.61499 3.62667 8.33766 2.32107 10.3323 1.4144C12.3633 0.471467 14.6118 0 17.0779 0C19.5803 0 21.847 0.471467 23.8779 1.4144C25.9089 2.32107 27.6315 3.62667 29.0459 5.3312C30.4966 6.99947 31.6027 9.0304 32.3643 11.424C33.1622 13.8176 33.5611 16.5013 33.5611 19.4752C33.5611 22.4491 33.1622 25.1328 32.3643 27.5264C31.5665 29.92 30.4422 31.9691 28.9915 33.6736C27.5409 35.3419 25.8001 36.6475 23.7691 37.5904C21.7382 38.4971 19.4897 38.9504 17.0235 38.9504Z" fill="#56698F"/>
<path d="M50.3375 38.5426C48.1978 38.5426 46.2031 38.2887 44.3535 37.781C42.5402 37.2733 40.9445 36.5298 39.5663 35.5506C38.1882 34.5351 37.0639 33.2839 36.1935 31.797C35.3231 30.2738 34.7791 28.5149 34.5615 26.5202H43.5375C43.8277 28.1159 44.5711 29.3127 45.7679 30.1106C47.001 30.8722 48.4517 31.253 50.1199 31.253C51.9695 31.253 53.4383 30.6727 54.5263 29.5122C55.6143 28.3154 56.1583 26.7741 56.1583 24.8882C56.1583 22.9661 55.5962 21.461 54.4719 20.373C53.3477 19.285 51.8789 18.741 50.0655 18.741C48.8687 18.741 47.7989 18.9767 46.8559 19.4482C45.9493 19.8834 45.2421 20.4093 44.7343 21.0258H36.1391L39.9471 0.408203H63.0671V7.75221H46.5295L45.2239 14.389H45.3327C46.0218 13.7725 46.9647 13.2466 48.1615 12.8114C49.3946 12.3762 50.8634 12.1586 52.5679 12.1586C54.345 12.1586 56.0133 12.4669 57.5727 13.0834C59.1322 13.6637 60.4922 14.5159 61.6527 15.6402C62.8133 16.7282 63.7199 18.0701 64.3727 19.6658C65.0618 21.2253 65.4063 22.9842 65.4063 24.9426C65.4063 27.0098 65.0437 28.8775 64.3183 30.5458C63.593 32.2141 62.5594 33.6466 61.2175 34.8434C59.8757 36.0402 58.2799 36.965 56.4303 37.6178C54.5807 38.2343 52.5498 38.5426 50.3375 38.5426Z" fill="#56698F"/>
</svg>
